<?xml version="1.0" encoding="UTF-8"?>
<svg id="Layer_2" data-name="Layer 2" xmlns="http://www.w3.org/2000/svg" viewBox="0 0 511.8 511.8">
  <defs>
    <style>
      .cls-1 {
        fill: #000;
        stroke-width: 0px;
      }
    </style>
  </defs>
  <g id="Layer_1-2" data-name="Layer 1">
    <g>
      <path class="cls-1" d="M213.86,127.58c-94.56,30.52-124.27,149.46-55.53,221.21,15.31,15.98,22.6,34.47,22.57,56.21-.02,9.57,1.2,19.36,7.83,26.15,7.95,8.15,7.32,17.39,7.2,27.05-.04,2.83-.08,5.67.02,8.49.51,14.01,5.72,25.73,16.61,34.86,6.83,5.74,14.94,8.27,23.35,10.25h39.98c.59-.25,1.15-.64,1.76-.73,19.93-3.07,34.9-18.37,37.6-38.42,1.23-9.13.51-18.3.54-27.44.01-3.38.83-5.89,3.18-8.39,7.85-8.32,11.98-18.37,11.84-29.82-.28-23.14,7.9-42.43,23.7-59.44,44.62-48.04,48.63-118.6,9.99-171.43-34.78-47.55-94.68-66.61-150.64-48.55ZM311.47,356.81c-7.02,15.02-10.43,30.77-10.59,47.3-.12,12.15-5.7,17.7-17.72,17.72-9.17.02-18.33.01-27.49.01s-18.66.04-27.99-.01c-10.72-.06-16.7-5.96-16.75-16.69-.11-24.32-6.28-46.68-21.33-66.14-6.11-7.89-13.72-14.52-19.42-22.79-17.13-24.86-22.52-52.18-16.96-81.67,10.38-55.07,64.96-92.38,120.03-81.84,43.89,8.4,72.59,34.52,84.1,77.42,9.32,34.68,1.28,66.66-22.13,94.19-8.73,10.28-17.94,20.06-23.75,32.5ZM271.12,481.74c-10.13.22-20.28.22-30.4,0-8.48-.18-14.54-6.45-14.76-15.02-.12-4.78-1.61-10.88.72-13.99,2.2-2.92,8.67-.74,13.26-.87,5.31-.15,10.63-.03,15.94-.03,8.81,0,17.62.09,26.42-.06,2.68-.05,3.87.48,3.65,3.46-.27,3.81.03,7.65-.1,11.46-.28,8.58-6.26,14.86-14.73,15.05Z"/>
      <path class="cls-1" d="M250.55,89.88c9.92,3.94,20.19-3.26,20.29-14.38.17-18.49-.29-37,.2-55.47.24-9.3-2.55-16.06-11.14-20.03h-8c-5.87,3.16-10.89,7.11-10.93,14.52-.09,20.66-.15,41.32.04,61.98.06,6.4,3.59,11.01,9.54,13.38Z"/>
      <path class="cls-1" d="M75.5,240.96c-18.49-.17-37,.29-55.47-.2-9.3-.24-16.06,2.55-20.03,11.14v8c3.16,5.87,7.11,10.89,14.52,10.93,20.66.09,41.32.15,61.98-.04,6.4-.06,11.01-3.59,13.38-9.54,3.94-9.92-3.26-20.19-14.38-20.29Z"/>
      <path class="cls-1" d="M497.28,240.97c-20.66-.09-41.32-.15-61.98.04-6.4.06-11.01,3.59-13.38,9.54-3.94,9.92,3.26,20.19,14.38,20.29,18.49.17,37-.29,55.47.2,9.3.24,16.06-2.55,20.03-11.14v-8c-3.16-5.87-7.11-10.89-14.52-10.93Z"/>
      <path class="cls-1" d="M135.97,141.68c5.04-2.82,7.44-7.41,7.72-13.13-.26-3.94-1.52-7.5-4.34-10.33-14.2-14.25-28.39-28.52-42.69-42.67-3.33-3.3-7.55-4.83-12.31-4.1-5.91.91-10.14,4.17-12.15,9.81-2.17,6.06-.6,11.5,3.87,16,13.84,13.91,27.74,27.76,41.64,41.61.94.93,1.98,1.8,3.11,2.48,4.97,2.98,10.13,3.14,15.15.33Z"/>
      <path class="cls-1" d="M440.35,84.33c-.89-5.94-4.22-10.12-9.82-12.14-6.31-2.27-11.77-.35-16.38,4.24-10.84,10.79-21.65,21.62-32.44,32.46-3.52,3.53-7.22,6.93-10.36,10.78-3.92,4.81-4.27,10.35-1.43,15.88,2.76,5.35,7.46,7.8,13.2,8.15,4.1-.27,7.65-1.54,10.48-4.37,14.25-14.2,28.51-28.39,42.67-42.68,3.31-3.34,4.79-7.57,4.08-12.32Z"/>
      <path class="cls-1" d="M254.43,180.98c-32.8.65-60.21,21.11-70.18,52.38-2.97,9.32.57,17.59,8.74,20.44,8.49,2.95,16.55-1.47,19.69-11,1.31-3.96,2.76-7.81,5.07-11.3,8.84-13.32,21.32-20,37.22-20.57,9.51-.35,15.91-6.49,15.89-15.03-.01-8.74-7.02-15.11-16.43-14.92Z"/>
    </g>
  </g>
</svg>