<?xml version="1.0" encoding="UTF-8"?>
<svg id="Layer_2" data-name="Layer 2" xmlns="http://www.w3.org/2000/svg" viewBox="0 0 350.7 487.1">
  <defs>
    <style>
      .cls-1 {
        fill: #000;
        stroke-width: 0px;
      }
    </style>
  </defs>
  <g id="Layer_1-2" data-name="Layer 1">
    <path class="cls-1" d="M263.25,398.7c58.32-20.95,93.82-76.18,86.5-137.51-6.42-53.88-36.77-90.05-87.33-109.14-5.24-1.97-9.9-3.83-13.33-8.52-1.4-1.91-1.83-2.97-.61-5.03,4.05-6.85,7.94-13.79,11.83-20.73,3.26-5.83,2.4-8.78-3.43-12.2-2.15-1.26-4.24-2.66-6.5-3.65-2.58-1.12-2.48-2.4-1.19-4.56,3.41-5.69,6.78-11.42,9.78-17.32,1.47-2.87,2.61-2.83,5.18-1.33,4.74,2.77,8.17,1.76,10.87-2.87,4.25-7.31,8.42-14.67,12.49-22.08,2.69-4.89,1.86-7.99-2.89-10.84-4.68-2.82-9.49-5.42-14.25-8.12-19.31-10.96-38.61-21.93-57.94-32.86-5.87-3.32-8.96-2.48-12.25,3.26-4.04,7.05-7.95,14.18-12.04,21.19-2.02,3.47-2.49,7.64.95,9.29,6.61,3.18,4.2,6.46,1.49,10.44-1.3,1.91-2.25,4.05-3.43,6.05-1.93,3.28-3.22,8.09-6.06,9.34-3.05,1.35-6.49-2.88-9.83-4.52-5.3-2.6-8.31-1.96-11.2,3.13-26.92,47.44-53.81,94.9-80.65,142.37-2.87,5.07-1.87,8.13,3.22,11.14,1.42.84,2.84,1.74,4.36,2.38,2.62,1.11,2.71,2.39,1.29,4.83-6.45,11.01-12.69,22.15-18.94,33.28-3.02,5.37-2.19,8.61,2.99,11.57,18.86,10.76,37.73,21.48,56.62,32.17,5.84,3.29,8.79,2.4,12.18-3.54,5.76-10.07,11.46-20.18,17.19-30.27q3.2-5.65,8.72-2.54c7.31,4.13,9.96,3.43,14.03-3.75,9.64-17.02,19.31-34.02,28.89-51.07,1.14-2.03,1.95-3.41,4.85-2.7,10.73,2.65,20.75.73,29.75-5.73,1.84-1.32,3.25-1.49,5.4-.71,32.24,11.85,54.43,44.44,53.84,79.28-.58,34.95-23.78,66.8-56.31,77.58-2.89.96-3.88.55-4.86-2.36-2.55-7.65-3.2-7.93-11.51-7.93-50.48-.01-100.97-.01-151.45-.01-3.15,0-6.31-.03-9.47.01-6.23.09-8.43,2.22-8.47,8.34-.05,9.15-.05,18.29,0,27.43.04,6.1,2.32,8.41,8.4,8.43,11.62.05,23.25,0,34.88,0h34.71c-3.46,10.02-6.96,19.48-9.94,29.1-1.13,3.62-2.66,4.79-6.52,4.77-38.03-.17-76.07-.11-114.11-.1-7.02.01-9.13,2.14-9.14,9.21-.02,15.29,0,30.59,0,45.88,0,8.01,1.9,9.9,9.96,9.9,57.13.01,114.27,0,171.41,0,40.36,0,80.72.01,121.08,0,7.27,0,9.43-2.17,9.44-9.5.02-15.29.02-30.59,0-45.88-.01-7.58-2.09-9.6-9.82-9.61-10.14-.01-20.27-.13-30.4.07-3.42.07-5.47-.58-6.39-4.33-1.15-4.64-2.76-9.22-4.62-13.63-1.35-3.19-.8-4.29,2.58-5.51ZM204.39,25.52c5.02-9.52,4.94-9.56,14.16-4.32,16.71,9.49,33.43,18.97,50.12,28.49,1.34.77,3.12,1.16,3.7,3.01-2.08,3.54-4.01,7.02-6.14,10.37-.8,1.25-1.75-.04-2.46-.44-19.4-10.99-38.76-22.05-58.2-32.97-2.15-1.21-2.28-2.05-1.18-4.14ZM194.55,66.93c3.62-6.13,7.2-12.29,10.56-18.56,1.15-2.13,2.12-1.76,3.77-.82,12.32,7.07,24.67,14.06,37.02,21.08.98.55,2.07.96,2.47,2.02-.11.35-.14.53-.22.67-3.99,7.06-7.94,14.15-12.04,21.15-.69,1.18-1.72.07-2.54-.39-12.64-7.14-25.27-14.3-37.94-21.37-1.83-1.02-2.18-1.93-1.08-3.78ZM147.7,254.9c-5.04,8.37-9.75,16.95-14.47,25.5-1.23,2.23-2.05,3-4.74,1.43-13.72-8.02-27.59-15.81-41.5-23.5-2.67-1.48-2.88-2.61-1.36-5.17,5.54-9.4,10.84-18.95,16.22-28.44,15.01,8.5,29.65,16.84,44.36,25.06,2.44,1.36,3.15,2.37,1.49,5.12ZM198.11,199.82c-8.61,14.93-17.13,29.91-25.51,44.98-1.37,2.46-2.33,2.73-4.78,1.33-23.51-13.46-47.07-26.83-70.71-40.07-2.64-1.48-2.52-2.61-1.22-4.9,23.91-42.08,47.78-84.18,71.54-126.34,1.59-2.82,2.72-2.7,5.25-1.25,23.23,13.32,46.53,26.55,69.89,39.64,2.9,1.63,3.13,2.95,1.43,5.6-2.51,3.89-4.85,7.93-6.87,12.09-1.46,3-3.22,3.34-6.3,2.65-22.53-5-43.68,12.4-43.57,35.67.07,9.57,3.42,17.89,10.06,24.7,2.03,2.08,2.19,3.47.79,5.9ZM223.48,191.4c-12.35.02-22.38-10.08-22.36-22.51.02-12.57,9.82-22.31,22.45-22.32,12.27-.01,21.89,9.67,21.98,22.12.08,12.57-9.75,22.68-22.07,22.71ZM167.98,357.9c19.75,0,39.5.02,59.25-.04,1.87,0,3.13.36,3.79,2.31,6.96,20.44,13.96,40.86,21.15,61.84-35.8,0-70.99-.02-106.17.05-2.54.01-3.25-.53-2.37-3.02,6.93-19.63,13.86-39.26,20.61-58.95.77-2.23,2.08-2.19,3.74-2.19ZM131.08,374.54c-17.1,0-34.19-.1-51.28.09-3.51.04-4.4-.88-4.36-4.37.12-12.49-.02-12.5,12.2-12.5h25.4c10.79,0,21.57.08,32.36-.04,3.26-.04,4.83-.02,3.33,4.21-4.46,12.54-4.24,12.61-17.65,12.61ZM293.61,435.79c3.88-.11,4.62,1.09,4.52,4.68-.26,9.47-.32,18.95.02,28.41.15,3.94-1.16,4.51-4.7,4.5-45.98-.12-91.97-.08-137.95-.08s-91.3-.06-136.95.1c-4.03.02-4.89-1.16-4.78-4.94.26-9.29.33-18.61-.03-27.9-.16-4.14,1.31-4.75,4.98-4.74,79.35.16,158.7.21,238.04.25,12.29,0,24.57.07,36.85-.28ZM252.98,381.4c-.51-3.21-1.73-6.4-3.16-9.34-1.49-3.08-.2-3.83,2.44-4.79,43.58-15.77,69.99-57.01,64.47-102.96-4.32-36-23.94-61.84-56.72-77.42-2.86-1.36-4.11-2.26-2.53-5.53,1.12-2.31,1.41-5.06,1.87-7.64.43-2.44.6-4.92.97-8.13,39.96,16.4,65.53,44.82,74.27,86.79,11.77,56.54-19.89,112.51-73.73,132.65-4.32,1.62-6.98,1.95-7.88-3.63Z"/>
  </g>
</svg>