<?xml version="1.0" encoding="UTF-8"?>
<svg id="Layer_2" data-name="Layer 2" xmlns="http://www.w3.org/2000/svg" viewBox="0 0 183.83 93.73">
  <defs>
    <style>
      .cls-1 {
        fill: #fff;
        stroke-width: 0px;
      }
    </style>
  </defs>
  <g id="Layer_1-2" data-name="Layer 1">
    <g>
      <path class="cls-1" d="M28.87,66.36l-9.37,9.25v17.12H0V0h19.5v52.49l28.49-26.99h23.24l-27.99,28.49,30.49,38.74h-23.62l-21.24-26.37Z"/>
      <path class="cls-1" d="M136.09,64.61h-50.86c1.87,8.37,9,13.5,19.25,13.5,7.12,0,12.25-2.12,16.87-6.5l10.37,11.25c-6.25,7.12-15.62,10.87-27.74,10.87-23.24,0-38.37-14.62-38.37-34.62s15.37-34.62,35.87-34.62,34.99,13.25,34.99,34.87c0,1.5-.25,3.62-.38,5.25ZM84.98,53.24h33.12c-1.38-8.5-7.75-14-16.5-14s-15.25,5.37-16.62,14Z"/>
      <path class="cls-1" d="M183.83,89.48c-4,2.87-9.87,4.25-15.87,4.25-15.87,0-25.12-8.12-25.12-24.12v-27.62h-10.37v-15h10.37V10.62h19.5v16.37h16.75v15h-16.75v27.37c0,5.75,3.12,8.87,8.37,8.87,2.87,0,5.75-.87,7.87-2.5l5.25,13.75Z"/>
    </g>
  </g>
</svg>