<?xml version="1.0" encoding="UTF-8"?>
<svg id="Layer_2" data-name="Layer 2" xmlns="http://www.w3.org/2000/svg" viewBox="0 0 370.91 161.76">
  <defs>
    <style>
      .cls-1 {
        fill: #000;
        stroke-width: 0px;
      }
    </style>
  </defs>
  <g id="Layer_1-2" data-name="Layer 1">
    <g>
      <path class="cls-1" d="M36.71,105.93c3.91-2.23,7.05-2.12,10.68-1.98,3.03.12,6.46.24,10.24-1.15,9.7-3.55,17.56-15.77,17.18-26.67-.29-7.97-4.77-12.24-9.98-17.19-4.32-4.12-9.71-9.26-14.6-18.38-3.49-6.51-4.89-11.61-5.92-15.34-1.3-4.7-2.41-8.76-7.05-9.91-2.91-.73-6.18.08-9.68,2.41C17.23,24.58,4.45,45.04.96,67.39c-2.87,18.34,1.25,34.61,5.21,45.02,4.33,11.39,10.3,20.55,13.96,23.71.51.44,1.87,1.61,3.66,1.61.39,0,.81-.06,1.24-.19,3.49-1.09,3.08-4.63,2.72-7.76-.54-4.62-1.43-12.37,2.99-18.53,2.04-2.84,4.61-4.56,5.97-5.34ZM24.62,106.86c-3.91,5.44-4.86,11.45-4.87,16.47-6.36-10.54-15.01-31.26-11.34-54.78,2.44-15.66,12.41-37.3,23.34-44.55,1.61-1.08,2.8-1.43,3.43-1.43.09,0,.17,0,.24.02.47.44,1.1,2.76,1.62,4.62,1.06,3.84,2.65,9.64,6.54,16.9,5.46,10.19,11.33,15.78,16.05,20.28,5.04,4.8,7.46,7.31,7.63,12,.28,7.66-5.56,16.87-12.23,19.32-2.39.87-4.7.78-7.37.69-3.97-.15-8.9-.33-14.7,2.97-1.88,1.07-5.48,3.48-8.35,7.48Z"/>
      <path class="cls-1" d="M158.29,54.7c-6.94-20.39-21.7-36.88-41.55-46.44-5.78-2.78-11.75-4.86-17.84-6.24-2.62-.59-5.25-1.06-7.9-1.38-12.64-1.59-25.53-.2-37.83,4.22-1.96.71-2.98,2.87-2.28,4.83.71,1.96,2.87,2.98,4.83,2.28,9.73-3.5,19.86-4.91,29.9-4.26-1.18,1.23-2.54,2.5-4.15,3.82-.54.44-1.08.87-1.6,1.28-3.41,2.69-6.94,5.47-7.31,10.4-.29,3.88,1.66,6.22,4.37,9.46,1.24,1.48,2.78,3.33,4.65,5.87,2.4,3.26,3.85,5.65,5.01,7.57,2.01,3.3,3.46,5.69,7.11,7.24,3.56,1.52,6.18,1,9.51.36,1.45-.28,3.08-.59,5.22-.84,7.72-.9,16.47-1.92,20.54,1.43,2.1,1.73,2.41,4.15,2.8,8.63.45,5.22,1.01,11.72,6.56,18.08,2.78,3.18,5.47,4.82,9.94,7.53,1.85,1.12,3.68,2.21,5.48,3.21-1.31,7.3-3.79,14.5-7.4,21.39-9.88,18.82-27.13,33.27-46.16,38.66-29.56,8.37-55.85-7.31-63.21-12.31-1.72-1.18-4.06-.72-5.23,1-1.18,1.72-.73,4.06,1,5.23,6.38,4.34,25.82,16.03,49.92,16.03,6.26,0,12.84-.79,19.57-2.7,20.98-5.94,39.97-21.8,50.78-42.41,3.63-6.91,6.21-14.12,7.74-21.44.53-2.56.93-5.13,1.21-7.71,1.18-11.02-.02-22.16-3.66-32.81ZM152.16,82.1c-4.1-2.49-6.16-3.74-8.17-6.05-3.94-4.5-4.32-9.01-4.74-13.78-.41-4.67-.87-9.97-5.51-13.8-3.79-3.12-8.89-4.03-14.3-4.03-3.93,0-8.03.48-11.91.93-2.41.29-4.28.64-5.77.93-2.93.57-3.75.69-5.14.11-1.31-.56-1.71-1.1-3.6-4.21-1.18-1.94-2.79-4.58-5.38-8.12-2.01-2.74-3.63-4.68-4.94-6.24-2.34-2.8-2.69-3.34-2.63-4.06.11-1.55,1.69-2.87,4.46-5.05.56-.44,1.13-.9,1.7-1.36,3.67-3.02,6.31-5.9,8.31-8.54,6.46,1.21,12.82,3.29,18.93,6.23,18.01,8.68,31.4,23.61,37.68,42.07,2.93,8.61,4.11,17.57,3.55,26.5-1-.59-1.87-1.12-2.55-1.53Z"/>
      <path class="cls-1" d="M75.39,127.4c2.95,2.49,6.36,1.54,8.84.84,2.38-.67,3.95-1.03,5.62-.28,1.44.64,2.11,1.72,3.08,3.42,1.06,1.87,2.67,4.7,6.26,5.16.35.05.69.07,1.01.07,3.6,0,5.82-2.77,9.61-7.46,1.44-1.79,3.23-4.01,5.55-6.7,1.78-2.07,3.23-3.68,4.41-4.97,3.02-3.34,4.89-5.41,4.89-8.11,0-.49-.06-1-.19-1.55-1.04-4.38-4.69-5.38-20.02-9.55-11.66-3.18-15.59-4.26-20.05-1.99-4.75,2.43-6.76,6.91-8.52,10.87-2.01,4.52-6.09,15.54-.49,20.25ZM82.77,110.23c1.66-3.73,2.79-6.08,5.05-7.22,1.58-.81,3.77-.43,14.63,2.53,4.67,1.28,11.38,3.11,14.07,4.22-.57.7-1.45,1.67-2.35,2.67-1.2,1.32-2.69,2.97-4.53,5.11-2.4,2.78-4.23,5.06-5.7,6.89-1.45,1.79-2.93,3.63-3.76,4.39-.22-.33-.48-.78-.69-1.15-1.12-1.95-2.79-4.9-6.57-6.59-1.78-.78-3.48-1.06-5.05-1.06-2.22,0-4.18.55-5.68.97-.62.17-1.49.41-2.01.48-.51-1.48.43-6.42,2.58-11.24Z"/>
    </g>
    <g>
      <path class="cls-1" d="M215.94,100.38l-9.37,9.25v17.12h-19.5V34.02h19.5v52.49l28.49-26.99h23.24l-27.99,28.49,30.49,38.74h-23.62l-21.24-26.37Z"/>
      <path class="cls-1" d="M323.17,98.63h-50.86c1.87,8.37,9,13.5,19.25,13.5,7.12,0,12.25-2.12,16.87-6.5l10.37,11.25c-6.25,7.12-15.62,10.87-27.74,10.87-23.24,0-38.37-14.62-38.37-34.62s15.37-34.62,35.87-34.62,34.99,13.25,34.99,34.87c0,1.5-.25,3.62-.38,5.25ZM272.05,87.25h33.12c-1.38-8.5-7.75-14-16.5-14s-15.25,5.37-16.62,14Z"/>
      <path class="cls-1" d="M370.91,123.5c-4,2.87-9.87,4.25-15.87,4.25-15.87,0-25.12-8.12-25.12-24.12v-27.62h-10.37v-15h10.37v-16.37h19.5v16.37h16.75v15h-16.75v27.37c0,5.75,3.12,8.87,8.37,8.87,2.87,0,5.75-.87,7.87-2.5l5.25,13.75Z"/>
    </g>
  </g>
</svg>