<?xml version="1.0" encoding="UTF-8"?>
<svg id="Layer_2" data-name="Layer 2" xmlns="http://www.w3.org/2000/svg" viewBox="0 0 383.86 495.84">
  <defs>
    <style>
      .cls-1 {
        fill: #000;
      }

      .cls-1, .cls-2, .cls-3 {
        stroke-width: 0px;
      }

      .cls-2 {
        fill: #fefefe;
      }

      .cls-3 {
        fill: #494949;
      }
    </style>
  </defs>
  <g id="Layer_1-2" data-name="Layer 1">
    <g>
      <path class="cls-2" d="M.5,171.79c-.02.15-.03.29-.03.44-.12,0-.28-.08-.47-.28.17-.06.33-.11.5-.16Z"/>
      <path class="cls-2" d="M47.98,495.84c-22.64-2.84-37.22-15.75-45.76-36.4-1.56-3.78-1.04-7.81-2.22-11.58,1.8,2.66,1.58,5.92,2.61,8.83,7.26,20.62,21.54,33.26,42.79,38.13.92.2,2.05-.14,2.58,1.02Z"/>
      <path class="cls-3" d="M0,176.95v-5c.17-.06.33-.11.5-.16.1-.03.21-.06.31-.09.4,1.85.59,3.67-.81,5.25Z"/>
      <g>
        <path class="cls-1" d="M383.36,171.81c-.1-.03-.21-.06-.32-.09-3.92-27.54-18.91-46.76-44.3-57.56-12.81-5.45-26.11-9.77-39.26-14.38-2.86-1-4.11-2.37-3.59-5.31.05-.33,0-.67,0-1,.02-4.17-1.37-9.13.43-12.28,1.91-3.33,7.26-.7,11.08-1.37,12.43-2.19,21.28-13.12,20.42-25.62-.83-12.17-11.05-21.83-23.48-22.19-8.19-.25-8.06-.25-8.5-8.57-.53-10.24-5.59-17.46-15-21.7-1.3-.59-3.05-.24-3.94-1.74H106.96c-9.12,3.45-16.4,8.79-18.35,19.01-.8,4.16.66,9.82-1.62,12.33-2,2.19-7.9.45-11.9,1.28-12.34,2.56-20.39,13.86-19,26.07,1.37,11.96,11.51,21,23.86,21.28q8.02.18,8.02,7.99c0,10.53-.02,10.47-9.68,13.99-11.69,4.26-23.63,7.98-34.96,13.06C18.87,125.97,4.59,145.01.81,171.7c-.06.34-.17.51-.34.53-.07,1.58.48,3.22-.47,4.72v270.91c1.18,3.77.66,7.8,2.22,11.58,8.54,20.65,23.12,33.56,45.76,36.4h286.9c3.83-.93,7.86-.6,11.63-2.01,21.45-8.03,34.24-23.06,37.35-45.97V171.95c-.16-.05-.33-.1-.5-.14ZM103.84,27.39c.38-9.05,2.46-11.39,11.66-11.39h152.76c9.69,0,13.6,4.89,11.67,14.3-.64,3.15-2.92,1.61-4.33,1.61-27.96.11-55.92.08-83.87.08s-55.25-.06-82.87.07c-3.58.02-5.2-.43-5.02-4.67ZM83.34,63.98c-1.5,0-3.04.16-4.48-.13-4.27-.87-6.85-3.54-6.8-7.96.06-4.41,2.68-7.03,6.97-7.8,1.46-.26,2.99-.1,4.49-.1h216.25c1.5,0,3-.09,4.49.05,4.41.4,7.51,3.62,7.59,7.78.1,4.35-3.1,7.72-7.77,8.12-1.16.1-2.33.04-3.49.04H83.34ZM53.37,127.97c15.44-5.62,30.83-11.37,46.35-16.77,3.42-1.2,4.47-2.8,4.33-6.31-.29-6.99.02-14-.14-20.99-.07-2.78.26-4.02,3.64-4.01,56.3.12,112.61.11,168.92.02,2.93-.01,3.56.92,3.49,3.64-.18,7.33.14,14.67-.15,21.99-.13,3.28,1.1,4.48,4.02,5.51,15.65,5.52,31.22,11.27,46.81,16.97,8.73,3.18,16.22,8.18,22.83,15.61H30.35c6.74-7.46,14.26-12.48,23.02-15.66ZM330.29,479.78c-1.33.06-2.66.06-3.99.06-89.63.01-179.26.02-268.89-.01-20.07,0-35.77-12.12-40.33-31.77,15.25,12.76,32.36,15.99,50.94,15.92,82.13-.3,164.26-.31,246.39,0,19.05.07,36.76-2.73,52-15.61-2.19,16.43-18.57,30.49-36.12,31.4ZM365.9,425.05c-9.85,14.51-23.49,22.67-41.03,22.7-88.6.2-177.2.2-265.81.01-17.53-.04-31.18-8.19-41.07-22.66-1.47-2.14-2.04-4.35-2.04-6.97.05-78.62.05-157.23.03-235.84,0-6.21,1.01-12.2,2.72-18.17.92-3.23,2.33-4.29,5.82-4.27,30.14.17,60.29.1,90.43.1h76.95c55.46,0,110.92.08,166.38-.14,4.66-.02,6.42,1.62,7.36,5.66,1.28,5.52,2.25,11.05,2.25,16.75-.03,78.62-.03,157.23.02,235.84,0,2.61-.54,4.82-2.01,6.99Z"/>
        <path class="cls-1" d="M299.52,335.44c-2.06,1.59-3.33,1.32-5.22.25-6.79-3.85-13.58-7.71-20.5-11.32-2.75-1.43-3.41-2.62-1.87-5.61,5.02-9.74,7.58-20.21,7.87-31.16.06-2.29.77-3.57,2.8-4.61,5.02-2.58,10-5.27,14.83-8.19,2.18-1.32,3.7-1.04,5.78.19,15.23,9,33.56,5.03,43.18-9.2,9.71-14.38,6.32-33.04-8.09-43.8-1.7-1.27-2.74-2.58-3.26-4.67-4.37-17.77-20.42-28.29-37.45-24.67-17.84,3.79-28.33,19.72-24.75,38.2,1.07,5.49-3.7,4.91-5.96,6.92-2.6,2.33-3.62-.3-4.92-1.85-10.51-12.4-23.51-20.82-39.21-25.27-13.92-3.93-28.11-2.75-42.2-2.61-23.64.22-43.06,9.89-58.53,27.68-1.23,1.41-1.96,4.5-4.83,2.14-2.46-2.02-7.3-1.56-6.14-7.27,3.65-17.93-7.03-34.11-24.56-37.89-17.14-3.69-33.4,6.81-37.65,24.38-.49,2.01-1.28,3.49-3.07,4.8-14.5,10.67-18.05,29.36-8.44,43.7,9.69,14.48,28.03,18.46,43.55,9.31,1.94-1.15,3.31-1.39,5.32-.2,5.01,2.96,10.15,5.67,15.3,8.37,1.83.96,2.52,2.16,2.56,4.28.23,11.32,3.03,22.04,8.14,32.11,1.21,2.4.76,3.37-1.47,4.55-7.05,3.74-14.06,7.54-20.91,11.62-2.48,1.47-3.9,1.02-6.04-.65-14.45-11.3-34.29-8.78-45.22,5.57-10.91,14.33-8.02,34.2,6.72,45.06,2.06,1.51,3.15,3.09,3.65,5.53,1.37,6.74,4.88,12.32,10.05,16.81,9.79,8.52,23.62,10.53,34.95,4.65,12.4-6.44,18.31-16.9,18-30.9-.04-1.76-1.46-3.77,1.28-5.2,7.46-3.9,14.78-8.08,22.21-12.19.29.71.52,1,.5,1.27-1.64,21.03,22.32,34.03,38.32,21.36,1.66-1.31,2.53-.51,3.82.37,9.12,6.13,18.4,6.28,27.46.08,2.19-1.49,3.28-.94,5.08.28,5.62,3.79,11.79,5.19,18.52,3.57,12.01-2.9,18.13-11.38,19.01-27.09,7.04,3.86,13.52,7.53,20.12,10.98,2.9,1.51,4.11,3.07,3.86,6.8-1.13,17.11,11.09,31.55,27.99,33.77,15.92,2.09,31.02-8.61,34.89-24.78.47-1.98,1.12-3.53,2.93-4.89,15.27-11.41,18.41-30.72,7.54-45.27-11.04-14.77-30.65-17.13-45.94-5.31ZM279.68,248.99c4.36-2.39,8.65-4.93,13.11-7.11,2.56-1.26,2.62-2.51.98-4.49-.95-1.15-1.74-2.43-2.55-3.68-4.52-6.95-4.42-14.05.28-19.87,4.28-5.31,11.59-7.28,18-4.87,6.88,2.59,10.68,8.87,10.26,17.48-1.34,3.53.68,5.01,4.27,6.21,7.76,2.57,11.85,8.23,11.83,15.4-.02,6.56-4.33,12.61-10.58,14.87-6.67,2.41-13.15.71-18.14-5.61-2.67-3.38-4.66-3.96-8.39-1.58-5.86,3.74-12.18,6.74-18.2,10.23-2.24,1.31-3.21,1.04-3.66-1.54-.29-1.62-.89-3.19-1.44-4.75q-2.47-7.02,4.23-10.69ZM106.99,264.44c-.64,2.6-1.56,2.73-3.71,1.5-5.89-3.41-12.04-6.4-17.8-10.02-3.72-2.33-6.03-2.46-8.85,1.47-3.89,5.42-9.59,7.63-16.28,6.08-6.73-1.55-11.75-7.44-12.32-14.09-.59-6.99,3.14-13.85,10.16-16.04,5.15-1.62,6.41-3.89,5.99-9.11-.71-8.97,6.9-16.31,15.83-16.28,10.96.03,18.66,10.95,14.96,21.26-.44,1.24-1.07,2.43-1.75,3.56q-4.6,7.65,3.05,11.89c1.17.64,2.33,1.28,3.49,1.94,3.6,2.04,9.01,3.33,10.28,6.36,1.22,2.87-2.07,7.53-3.05,11.48ZM97.45,366.94q-6.06,3.33-3.3,9.72c3.31,7.66,1.72,14.91-4.33,19.73-5.57,4.45-13.17,4.73-19,.52-4.78-3.46-7.56-8.22-6.67-14.14.73-4.76-.92-6.56-5.33-8.02-7.96-2.64-12.2-10.57-10.55-18.09,1.73-7.83,8.88-13.32,16.78-12.71,5.94.46,10.12,3.64,13.15,8.69,3.37,5.62,3.47,5.57,9.37,2.33,10.62-5.83,21.27-11.61,31.81-17.58,2.37-1.34,3.81-1.59,5.79.78,2.54,3.04,5.7,5.55,8.89,8.57-12.25,6.76-24.42,13.49-36.61,20.2ZM240.43,333.15c-6.45,5.02-9.76,9.83-8.65,18.02.71,5.24.22,10.64.11,15.97-.11,5.36-3.5,8.85-8.2,8.71-4.51-.13-7.65-3.51-7.74-8.66-.11-6.66-.13-13.32.02-19.98.06-2.49-.5-3.34-3.23-3.4-12.82-.29-12.81-.39-12.81,12.26,0,3.33.02,6.66-.01,9.99-.06,6.21-3.12,9.89-8.13,9.79-4.85-.09-7.8-3.65-7.85-9.58-.04-6.16-.14-12.32.05-18.47.09-2.82-.31-4.01-3.66-4.01-12.39-.01-12.39-.17-12.39,12.2,0,3.83.1,7.66-.04,11.48-.18,5.06-3.48,8.42-8.02,8.38s-7.81-3.39-7.9-8.5c-.12-7.32-.32-14.66.08-21.97.22-4.18-1.22-6.68-4.58-8.97-13.45-9.19-22.18-21.72-25.97-37.66-8.78-36.82,19.72-73.89,57.57-74.77,4.33-.11,8.66-.02,15-.02,12.52-.87,26.5.76,39.38,8.35,37.23,21.95,41.1,74.3,6.97,100.84ZM326.81,374.1c-.74.37-1.5.8-2.3.92-4.37.67-5.26,3.14-4.84,7.33.72,7.3-3.08,13.35-9.31,16.13-5.95,2.67-12.81,1.44-17.55-3.14-5.04-4.89-6.2-11.37-3.25-18.32q2.84-6.72-3.68-10.36c-11.51-6.39-23.04-12.78-34.55-19.18,2.69-3.32,5.38-6.42,7.8-9.72,1.6-2.17,3-1.72,4.99-.61,11.43,6.42,22.99,12.62,34.37,19.13,2.89,1.66,4.6,1.75,5.99-1.53.63-1.52,1.62-2.91,2.59-4.24,3.92-5.37,10.61-7.78,16.74-6.11,6.5,1.77,11.34,7.35,12,13.82.66,6.6-2.86,12.82-9,15.88Z"/>
        <path class="cls-1" d="M160.19,263.93c-13.29-.11-24.23,10.71-24.23,23.97s10.69,23.88,23.73,23.99c13.28.11,24.23-10.73,24.23-23.99,0-13.08-10.68-23.86-23.73-23.97ZM159.82,295.88c-4.5-.07-8.13-3.99-7.84-8.46.27-4.3,4.04-7.69,8.33-7.49,4.3.21,7.74,3.92,7.6,8.22-.13,4.3-3.8,7.8-8.09,7.73Z"/>
        <path class="cls-1" d="M223.69,263.93c-13.04.1-23.74,10.88-23.75,23.95-.01,13.26,10.92,24.11,24.2,24.01,13.04-.1,23.75-10.9,23.75-23.96.01-13.28-10.9-24.1-24.2-24ZM223.88,295.88c-4.5-.02-8.17-3.9-7.93-8.39.23-4.3,3.96-7.72,8.25-7.56,4.31.16,7.78,3.84,7.69,8.14-.09,4.3-3.72,7.84-8.01,7.81Z"/>
      </g>
    </g>
  </g>
</svg>